<svg xmlns="http://www.w3.org/2000/svg" xmlns:xlink="http://www.w3.org/1999/xlink" version="1.1" id="Your_Icon" x="0px" y="0px" width="100px" height="100px" viewBox="0 0 100 100" enable-background="new 0 0 100 100" xml:space="preserve">
<path fill="#000000" d="M81.097,38.886h6.539L87.632,100H12.358l0.004-61.114h18.532h38.166 M35.556,57.844l-3.291,5.642  l10.271,5.962l-10.271,5.919l3.291,5.678L45.8,75.153v11.843h6.583V75.153l10.271,5.891l3.291-5.678l-10.271-5.919l10.271-5.962  l-3.291-5.642L52.41,63.735V51.893H45.8v11.843L35.556,57.844z"/>
<path fill="#000000" d="M81.097,50.879H69.104V31.033c0-10.498-8.569-19.038-19.106-19.038s-19.106,8.54-19.106,19.038v19.846  H18.897V31.033c0-17.111,13.953-31.031,31.1-31.031s31.1,13.92,31.1,31.031V50.879z"/>
</svg>