<svg xmlns="http://www.w3.org/2000/svg" xmlns:xlink="http://www.w3.org/1999/xlink" version="1.1" id="Layer_1" x="0px" y="0px" width="100px" height="100px" viewBox="0 0 100 100" enable-background="new 0 0 100 100" xml:space="preserve">
<path d="M84.76,33.65c-1.729-3.05-3.91-5.93-6.51-8.53s-5.48-4.78-8.54-6.51c-2.47-1.41-5.06-2.54-7.71-3.38v15.31  c2.26,1.21,4.36,2.75,6.22,4.61c9.86,9.86,10.13,25.71,0.82,35.9c-0.3,0.33-0.6,0.65-0.92,0.97c-0.271,0.271-0.55,0.54-0.84,0.801  c-4.79,4.34-10.92,6.71-17.44,6.71c-6.95,0-13.48-2.7-18.39-7.61c-9.81-9.82-10.12-25.61-0.92-35.8c0.26-0.3,0.54-0.59,0.82-0.87  c0.31-0.31,0.62-0.61,0.94-0.89c1.74-1.59,3.66-2.93,5.71-3.98V15.13c-5.49,1.69-10.69,4.58-15.18,8.67  c-0.51,0.46-1.01,0.93-1.5,1.42c-0.25,0.25-0.49,0.49-0.72,0.74C8.25,39.05,6.39,58.37,14.94,73.38l-0.13,0.13  c1.73,3.05,3.9,5.931,6.51,8.53c2.61,2.6,5.49,4.78,8.54,6.51l0.12-0.12c6.14,3.49,12.99,5.28,19.86,5.28c8.99,0,17.99-3,25.36-9.01  c1.01-0.82,1.99-1.71,2.939-2.66c0.04-0.03,0.07-0.06,0.11-0.1C91.33,68.86,93.51,48.99,84.76,33.65z"/>
<rect x="43" y="4" width="14" height="49"/>
<circle cx="50" cy="53.125" r="7"/>
</svg>