<svg xmlns="http://www.w3.org/2000/svg" xmlns:xlink="http://www.w3.org/1999/xlink" version="1.1" id="Your_Icon" x="0px" y="0px" width="100px" height="100px" viewBox="0 0 100 100" enable-background="new 0 0 100 100" xml:space="preserve">
<path d="M63.579,46.164h-3.076V24.978c0-13.688-11.136-24.824-24.825-24.824c-13.687,0-24.822,11.136-24.822,24.824v6.995h11.992  v-6.995c0-7.076,5.755-12.833,12.83-12.833c7.077,0,12.833,5.756,12.833,12.833v21.186H7.78c-4.297,0-7.78,3.483-7.78,7.78v37.958  c0,4.298,3.483,7.779,7.78,7.779h55.799c4.297,0,7.779-3.481,7.779-7.779V53.944C71.358,49.647,67.876,46.164,63.579,46.164z   M41.483,72.785c0,3.207-2.598,5.806-5.804,5.806c-3.204,0-5.802-2.599-5.802-5.806V65.71c0-3.206,2.598-5.806,5.802-5.806  c3.206,0,5.804,2.6,5.804,5.806V72.785z"/>
</svg>