<svg xmlns="http://www.w3.org/2000/svg" xmlns:xlink="http://www.w3.org/1999/xlink" version="1.1" id="Layer_1" x="0px" y="0px" width="100px" height="100px" viewBox="0 0 100 100" enable-background="new 0 0 100 100" xml:space="preserve">
<path d="M80,47.844h-2.656c0-4.308,0-6.899,0-16.469C77.344,16.273,65.102,4.031,50,4.031S22.656,16.273,22.656,31.375  c0,9.496,0,12.209,0,16.469H20c-2.75,0-5,2.25-5,5v38c0,2.75,2.25,5,5,5h60c2.75,0,5-2.25,5-5v-38C85,50.094,82.75,47.844,80,47.844  z M36.328,31.376c0-7.552,6.121-13.672,13.672-13.672c7.548,0,13.672,6.12,13.672,13.672c0,4.554,0,10.6,0,16.468H36.328  C36.328,39.253,36.328,37.061,36.328,31.376z"/>
</svg>